<?xml version="1.0" encoding="utf-8"?>
<!-- Generator: Adobe Illustrator 23.0.2, SVG Export Plug-In . SVG Version: 6.00 Build 0)  -->
<svg version="1.1" id="Camada_1" xmlns="http://www.w3.org/2000/svg" xmlns:xlink="http://www.w3.org/1999/xlink" x="0px" y="0px"
	 viewBox="0 0 119.8 121.9" style="enable-background:new 0 0 119.8 121.9;" xml:space="preserve">
<style type="text/css">
	.st0{fill:#FFFFFF;}
</style>
<g id="OBJECTS">
	<g>
		<path class="st0" d="M52,18.9c-0.4,0-0.6,0.1-0.8,0.1C49,19.4,47,20,45,20.9c-0.5,0.2-1,0.3-1.4,0.5c-0.1,0-0.3,0.1-0.4,0.1
			c-0.4,0-0.8,0-1.1-0.4c-0.2-0.4,0.1-0.8,0.3-1.1c0.6-0.5,1.3-1,1.9-1.4c1.8-0.9,3.7-1.4,5.6-1.9c0.9-0.2,1.8-0.3,2.8-0.5
			c0.5-0.1,0.7-0.2,0.9-0.7c0.7-1.5,1.4-3,2.1-4.5c0.8-1.7,1.7-3.3,2.8-4.8c0.3-0.4,0.6-0.8,1-1.1c0.7-0.6,1.5-0.7,2.3-0.4
			c0.5,0.2,0.7,0.4,0.6,0.9c0,0.4-0.1,0.8-0.2,1.1c-0.8,2.6-1.7,5.3-2.6,7.9c-0.1,0.3-0.2,0.7-0.4,1.1c0.2,0,0.3,0.1,0.5,0.1
			c4.2,0.1,8.4,0.1,12.6,0.2C76,16,79.6,15.8,83.2,15c1.9-0.4,3.8-1,5.6-1.9c1.4-0.8,2.6-1.8,3.3-3.3c0.3-0.6,0.5-1.3,0.4-2
			c0-1.6-1.2-2.8-2.8-2.7c-0.8,0-1.6,0.2-2.3,0.4c-1.5,0.6-2.9,1.2-4.3,1.8c-1,0.5-2,1-3,1.6c0.2,0.2,0.3,0.3,0.4,0.3
			c0.7,0.4,1.4,0.8,2.2,1.2c0.8,0.4,1.5,0.5,2.3,0.3c0.4-0.1,0.8-0.1,1.2-0.1c0.3,0,0.6,0.1,0.8,0.2c0.6,0.3,0.7,0.7,0.1,1.1
			c-0.7,0.6-1.6,0.9-2.5,1.1c-2,0.4-4,0-5.9-0.7c-0.8-0.3-1.6-0.7-2.3-1.2C76,11,75.6,11,75,11.1c-1.9,0.7-3.8,1.2-5.8,1.4
			c-1.1,0.1-2.2,0.1-3.3-0.2c-2.8-0.6-3-2.8-2.4-4.6C64,6.4,65,5.5,66.4,5c3-1.2,5.9-1,8.8,0.6c0.7,0.4,1.3,0.8,1.9,1.3
			c0.3-0.1,0.6-0.3,0.9-0.4c2.4-1.3,4.9-2.4,7.5-3.1c2.5-0.6,5-0.8,7.5-0.3c1.4,0.3,2.7,0.8,3.8,1.8c1.7,1.4,2.3,3.2,1.5,5.3
			c-0.5,1.4-1.4,2.6-2.6,3.6c-1.5,1.2-3.2,2-5,2.7c-2.7,1-5.5,1.6-8.4,1.9c-5.3,0.7-10.7,0.6-16,0.4c-2.4-0.1-4.8-0.2-7.2-0.2
			c-0.3,0-0.6,0-0.8,0c-0.1,0.1-0.2,0.1-0.2,0.2c-1.8,4.3-3.7,8.5-5.4,12.8c-1.5,3.7-2.3,7.6-2.6,11.6c-0.1,1.6,0,3.3,0.4,4.8
			c0.1,0.3,0.2,0.6,0.3,1c0.3-0.3,0.5-0.4,0.6-0.6c1.5-1.6,2.7-3.3,3.7-5.2c0.7-1.3,1.3-2.7,2-3.9c0.8-1.4,1.8-2.8,2.7-4.1
			c0.3-0.5,0.5-0.9,0.6-1.5c0.3-1.8,0.9-3.6,1.8-5.3c1.5-2.6,3.6-4.5,6.6-5.2c1.9-0.4,3.8-0.4,5.7,0.2c0.8,0.3,1.4,0.7,2.2,1.1
			c0.2-0.3,0.4-0.8,0.7-1.1c0.6-0.7,1.1-1.5,1.8-2.1c0.7-0.7,1.6-1,2.5-1c1.1,0.1,1.6,0.6,1.5,1.7c-0.1,0.7-0.2,1.3-0.4,2
			c-0.6,1.8-1.2,3.5-1.7,5.3c-0.5,1.6-1,3.2-1.2,4.8c-0.1,0.8-0.2,1.6,0.1,2.5c0.3-0.3,0.5-0.6,0.7-0.8c1.5-2,2.6-4.3,3.7-6.6
			c0.3-0.5,0.3-1.1,0.5-1.7c0.3-0.8,0.5-1.5,0.8-2.3c0.5-1.2,1.4-2,2.5-2.6c0.8-0.4,1.7-0.3,2.5,0c0.6,0.3,0.7,0.8,0.7,1.4
			c-0.1,0.8-0.2,1.6-0.3,2.4c-0.2,1.4-0.4,2.9-0.6,4.3c0,0.2,0,0.4,0,0.8c0.3-0.3,0.5-0.5,0.6-0.8c2.2-2.9,4.1-6,5.8-9.2
			c0.3-0.7,0.8-1.3,1.2-1.9c0.3-0.4,0.7-0.7,1.2-0.8c0.8-0.2,1.7-0.2,2.5,0.1c0.8,0.3,1.1,0.6,0.9,1.5c-0.4,2.3-0.9,4.7-1.4,7.1
			c-1,4.3-2,8.7-3,13c0,0.2-0.1,0.3-0.1,0.6c0.1,0,0.2,0.1,0.3,0c2.5-0.8,4.9-2,6.9-3.8c1.5-1.3,2.7-3,3.3-4.9
			c0.5-1.5,0.4-3.1-0.3-4.5c-0.3-0.6-0.6-1.2-1-1.8c-0.1-0.2-0.3-0.4-0.4-0.7c-0.3-0.7-0.2-1.2,0.4-1.6c0.4-0.3,0.9-0.4,1.3-0.5
			c3.2-0.6,5.8,0.9,7.3,3.8c1,2,1.1,4,0.2,6.1c-0.9,2.1-2.3,3.8-4.1,5.2c-3,2.4-6.3,3.9-9.9,5c-1.3,0.4-2.8,0.7-4.1,1
			c-0.3,0.1-0.5,0.1-0.8,0.2c-0.5,1.2-0.9,2.4-1.4,3.6c-0.9,2-1.9,3.9-3.3,5.6c-3,3.8-6.8,6.2-11.6,6.9c-2.2,0.3-4.3,0.3-6.4-0.4
			c-0.9-0.3-1.7-0.7-2.4-1.2c-1.7-1.3-2.3-3-1.9-5c0.4-2.1,1.4-3.9,2.9-5.5c1.9-2,4.3-3.2,6.9-4c2.6-0.8,5.3-1.2,8-1.6
			c1.3-0.2,2.5-0.3,3.7-0.5c0.4-0.1,0.7-0.2,0.8-0.6c0.6-2.3,1.3-4.5,1.9-6.9c-3,2.4-5.9,2.4-9,0.6c-0.4,0.5-0.8,1.1-1.3,1.6
			c-1.6,1.9-3.6,2.6-6.1,2.3c-1.3-0.2-2.3-0.8-3-2c-0.1-0.1-0.1-0.2-0.2-0.3c0,0,0,0-0.1-0.1c-0.4,0.6-0.8,1.1-1.3,1.7
			c-1,1.3-2.2,2.4-3.6,3.3c-1.7,1.1-3.5,1.4-5.5,1.1c-1.1-0.2-2-0.8-2.9-1.6c-0.2,0.3-0.3,0.5-0.4,0.8c-0.9,1.5-1.7,3-2.7,4.4
			c-0.8,1.3-1.9,2.3-3,3.3c-2,1.7-4.3,2.1-6.8,1.5c-1.7-0.4-2.8-1.5-3.7-3c-0.7-1.3-1-2.8-1.1-4.3c-0.1-3.6,0.5-7.1,1.5-10.5
			c1.1-3.7,2.7-7.3,4.3-10.7C50.6,21.8,51.3,20.4,52,18.9z M91.3,45.6c-0.3,0-0.6,0-0.8,0c-1.8,0.3-3.5,0.5-5.2,0.8
			c-1.8,0.3-3.5,0.8-5,1.7c-1.6,0.9-2.9,2.1-3.8,3.7c-0.6,1-0.9,2.1-0.9,3.3c-0.1,1.8,1.7,3.8,4.1,3.2c1.8-0.5,3.4-1.3,4.8-2.4
			c2.1-1.7,3.7-3.8,5-6.1C90.1,48.5,90.7,47.1,91.3,45.6z M66.2,41.3c1.1-0.5,2-1.4,3-2.7c1.8-2.2,3.2-4.6,4.5-7.1
			c0.3-0.7,0.5-1.3,0.4-2.1c-0.2-1.6-0.7-3.1-2.1-4.1c-0.5-0.4-0.9-0.5-1.5-0.2c-0.5,0.3-0.9,0.6-1.4,1c-0.8,0.8-1.5,1.7-2,2.7
			c-1.1,2.1-1.8,4.3-2.1,6.7c-0.2,1.3-0.3,2.6,0,3.9C65.4,40.1,65.6,40.8,66.2,41.3z M73.3,8.8c-0.8-0.8-1.4-1.5-2.1-2.2
			c-0.5-0.5-1.2-0.8-2-0.7c-1.1,0.2-2,0.8-2.6,1.8c-0.4,0.7-0.5,1.5-0.2,2.3c0.2,0.5,0.7,1,1.5,0.8c0.3-0.1,0.6-0.1,0.9-0.2
			C70.4,10.1,71.8,9.6,73.3,8.8z"/>
		<path class="st0" d="M36.3,34.7c0-3.5-0.5-6.9-1.1-10.3c-0.6-3.8-1.2-7.7-1.8-11.5c-0.3-2.2-0.3-4.5,0.4-6.7c1-3.6,4-6,7.8-6.2
			c1.1,0,2.3,0,3.3,0.3c2.7,0.8,4.3,2.7,4.7,5.4c0.3,1.6,0,3.2-0.9,4.6c-0.3,0.4-0.6,0.9-1,1.2c-0.5,0.5-1.2,0.7-1.8,0.5
			c-0.6-0.1-0.8-0.4-0.8-1c0-0.5,0-1.1,0.1-1.6c0-1.4-0.1-2.8-0.6-4.2c-0.3-1-0.9-1.9-1.7-2.6c-0.5-0.4-0.6-0.4-1.2-0.1
			c-1,0.7-1.7,1.6-2.2,2.7c-0.5,1.3-0.8,2.6-0.8,4c-0.1,2.3,0.2,4.7,0.6,7c0.7,4.1,1.4,8.1,2.1,12.2c0.7,4.6,0.7,9.1-0.1,13.7
			c-0.5,2.9-1.5,5.7-3.1,8.3c-2.6,4.3-6.5,6.8-11.2,8.1c-3.2,0.9-6.4,1-9.6,0.2c-2.3-0.6-4.4-1.7-5.8-3.5C7,49.6,5.4,43.1,7.7,36
			c1.2-3.7,3.5-6.5,7.1-8.1c2.3-1.1,4.8-1.3,7.3-0.8c3,0.6,5,2.3,6.1,5.2c0.9,2.3,1.3,4.8,1,7.3c-0.3,2.6-2.5,4.4-5.5,3.4
			c-0.6-0.2-0.9-0.6-1.2-1.2c-0.4-1.1-0.4-2.1-0.3-3.2c0.2-1.6,0.1-3.1-0.3-4.6c-0.2-0.8-0.5-1.6-0.8-2.4c-0.3-0.6-0.7-1.1-1.1-1.6
			c-0.3-0.4-0.8-0.5-1.2-0.2c-0.7,0.5-1.5,0.9-2.1,1.5c-1.6,1.5-2.6,3.3-3.2,5.4c-1.7,6-0.6,11.5,2.9,16.7c0.6,0.9,1.3,1.7,2.2,2.3
			c1.3,1,2.8,1.3,4.5,0.9c4.4-1.1,7.7-3.7,9.9-7.6c1.4-2.5,2.2-5.3,2.7-8.1C36.1,38.7,36.3,36.7,36.3,34.7z"/>
	</g>
	<g>
		<path class="st0" d="M62.7,87.9c0.2-0.3,0.3-0.6,0.5-0.8c1.6-2.9,3.4-5.6,5.6-8.2c1.2-1.4,2.5-2.5,4.1-3.4c1-0.5,2-0.8,3.1-0.8
			c2.2,0,3.5,1.2,3.8,3.4c0.1,1.1,0,2.2-0.1,3.3c-0.2,2.4-0.9,4.8-1.7,7.1c-0.1,0.2-0.2,0.4-0.1,0.8c0.2-0.2,0.3-0.4,0.5-0.6
			c2.3-2.8,4.5-5.5,6.8-8.2c1.2-1.4,2.5-2.6,3.9-3.7c1.1-0.8,2.3-1.5,3.6-1.9c1.2-0.4,2.4-0.4,3.5,0c1.1,0.3,1.8,1,2,2.2
			c0.3,1.3,0.2,2.7-0.1,4c-0.6,2.2-1.4,4.4-2.4,6.4c-1.4,3-3,6-4.4,9.1c-1.1,2.4-2.2,4.9-3.1,7.3c-0.4,1-0.5,2.1-0.7,3.1
			c-0.1,0.8,0,1.3,0.4,1.9c0.4-0.3,0.8-0.4,1.1-0.8c0.9-0.9,1.9-1.8,2.7-2.8c2.5-3,4.5-6.3,6.5-9.6c0.9-1.6,1.8-3.3,3.1-4.7
			c0.2-0.2,0.3-0.5,0.4-0.8c1.1-2.3,2.4-4.4,4-6.3c0.6-0.8,1.3-1.5,2.1-2.2c2.1-1.7,4.4-1.7,6.7-0.6c1.7,0.8,2.4,2.9,1.6,4.6
			c-0.3,0.7-0.8,1.4-1.4,2c-1.9,2-4.3,3-7.2,3c-0.3,0-0.5,0-0.8,0c-0.1,0.1-0.2,0.2-0.2,0.3c-1.2,2.9-2.1,5.9-2.4,9.1
			c-0.1,0.8,0,1,0.4,1.6c0.6-0.1,1.1-0.4,1.6-0.8c1.1-0.9,1.9-2,2.8-3.2c0.9-1.3,1.9-2.6,2.8-3.9c0.7-0.9,1.5-1.2,2.6-1
			c1,0.2,2.1,0.6,3.1,0.9c0.2,0.1,0.4,0.2,0.6,0.3c0.5,0.4,0.6,0.8,0.3,1.3c-0.3,0.5-0.6,1-1,1.4c-2.1,2.4-4.5,4.5-7.1,6.3
			c-1.9,1.3-4.1,1.8-6.3,1.5c-1.8-0.2-3.3-0.9-4.4-2.4c-0.2,0.3-0.3,0.5-0.5,0.7c-1.3,1.9-2.7,3.8-4.4,5.4c-1,0.9-2,1.8-3.2,2.3
			c-1.4,0.7-2.9,0.9-4.4,0.6c-0.9-0.2-1.7-0.6-2.4-1.2c-0.9-0.8-1.3-1.8-1.3-3c0-1.3,0.2-2.7,0.7-3.9c1-2.5,2.1-5,3.3-7.5
			c1.8-4,3.8-7.9,5.6-11.8c0.8-1.7,1.4-3.5,1.8-5.4c0.1-0.5,0.1-1-0.1-1.7c-0.3,0.2-0.5,0.3-0.6,0.4c-0.9,0.7-1.7,1.4-2.6,2.2
			c-3.6,3-6.8,6.5-9.3,10.5c-1.8,2.7-3.4,5.5-5.1,8.2c-1.4,2.3-2.9,4.5-4.3,6.7c-0.3,0.5-0.7,1.1-1,1.6c-0.3,0.5-0.6,0.7-1.2,0.8
			c-1.2,0.2-2.4,0.1-3.6-0.1c-1.2-0.3-1.6-0.9-1.2-2.1c0.5-1.5,1.1-3,1.8-4.4c1.7-3.8,3.3-7.5,4.6-11.4c0.8-2.6,1.7-5.1,2.4-7.7
			c0.2-0.8,0.3-1.6,0.4-2.4c0.1-0.4,0-0.8-0.4-1.3c-0.2,0.2-0.5,0.3-0.7,0.5c-1.4,1.3-2.6,2.6-3.6,4.2c-1.5,2.3-3,4.7-4.1,7.3
			c-0.9,2.3-1.7,4.6-2.5,6.8c-1.1,3.1-2.2,6.1-3.2,9.2c-0.3,0.8-0.8,1.2-1.6,1.3c-1.3,0-2.7,0-4.1-0.1c-0.3,0-0.5-0.1-0.8-0.2
			c-0.6-0.3-0.8-0.6-0.7-1.3c0.2-0.8,0.5-1.7,0.8-2.5c1-3.1,2.1-6.2,3.1-9.3c0.3-1,0.5-2,0.7-3c0.2-0.8,0.1-1.6-0.3-2.3
			c-0.3-0.6-0.4-0.6-1-0.5c-0.1,0-0.1,0-0.2,0c-0.8,0.3-0.9,0.3-0.9,1.1c0,2.2-0.5,4.3-1,6.3c-0.8,3-1.8,6-3.5,8.6
			c-1.4,2.3-3.1,4.3-5.4,5.8c-2.2,1.4-4.6,1.8-7.2,1.2c-0.2,0-0.4-0.1-0.6-0.1c-2.9-0.4-4.5-2.1-4.9-5c-0.3-2.8,0-5.6,0.8-8.4
			c0.8-2.5,1.8-4.8,3.2-7c0.6-0.9,1.2-1.7,1.9-2.5c0.2-0.3,0.3-0.5,0.3-0.8c-0.7-4.7,2.5-8.5,7.3-8.6c1.5,0,2.9,0.3,4.2,1
			c0.2,0.1,0.3,0.2,0.5,0.3c2.3,1.1,3.6,2.9,4.2,5.3c0.1,0.2,0.1,0.5,0.2,0.7c0,0.1,0.1,0.1,0.1,0.1c0.8,0,1.7-0.1,2.5-0.1
			c0.8,0.1,1.5,0.2,2.3,0.5c0.9,0.3,1.7,0.9,2.2,1.8C62.5,87.5,62.6,87.7,62.7,87.9z M42.1,90.4c-0.1,0.1-0.2,0.2-0.2,0.3
			c-1.9,4.1-2.8,8.4-2.7,12.9c0,1.2,0.2,2.3,0.7,3.3c0.1,0.2,0.3,0.5,0.4,0.5c1,0.3,2,0.3,2.6-0.8c0.7-1,1.3-1.9,1.9-2.9
			c2-3.7,3.5-7.7,4.3-11.8c0-0.2,0.1-0.5,0.1-0.8C46.7,91.9,44.4,91.6,42.1,90.4z M49.8,86c0.1-1.5-0.1-3-0.7-4.4
			c-0.4-0.8-0.9-1.4-1.7-1.9c-0.5-0.3-1.1-0.3-1.6-0.1c-1.5,0.8-3.1,2.5-2.6,4.8c0.1,0.3,0.1,0.5,0.4,0.6c0.4,0.2,0.4,0.4,0.3,0.8
			c-0.1,0.3-0.2,0.5-0.1,0.8c0.3,0.8,0.7,1.4,1.3,2c0.6,0.5,1.3,0.8,2.1,0.5c0.7-0.2,1.3-0.5,2-0.7c0.4-0.1,0.5-0.3,0.5-0.7
			C49.8,87.1,49.8,86.5,49.8,86z M112.1,82.1c-0.9,0.5-1.5,1.1-1.9,1.9c-0.8,1.4-1.6,2.8-2.4,4.2c-0.1,0.2-0.1,0.3-0.2,0.6
			c0.2-0.1,0.3-0.1,0.5-0.2c1.4-0.8,2.7-1.7,3.6-3c0.3-0.4,0.5-0.9,0.7-1.4C112.5,83.5,112.5,82.8,112.1,82.1z"/>
		<path class="st0" d="M4.9,93.4c0.2-1.4,0.4-2.8,0.6-4.2c0.5-3.3,1-6.5,1.5-9.7c0.2-1.3,0.5-2.7,0.7-4c0.1-0.5,0.3-0.8,0.8-0.9
			c0.1,0,0.3-0.1,0.4-0.1c1.4,0,2.8-0.1,4.2,0c0.7,0,0.9,0.3,0.9,1.1c0,0.6-0.1,1.3-0.3,1.9c-1,4.5-2,8.9-2.6,13.5
			c-0.1,0.8-0.2,1.7-0.3,2.6c2.7,0.4,5.4,0.9,8.2,0.8c0.1-1,0.3-1.9,0.4-2.9c0.7-5.3,1.7-10.5,2.8-15.7c0.3-1.3,0.6-2.7,0.9-4
			c0.2-1,0.6-1.4,1.6-1.5c0.4-0.1,0.8-0.1,1.3,0c0.8,0.1,1.5,0.2,2.3,0.2c1.2,0.1,1.6,0.5,1.6,1.7c-0.1,1.8-0.2,3.5-0.4,5.3
			c-0.6,4.2-1.3,8.4-2,12.5c0,0.2-0.1,0.5-0.1,0.8c0.3-0.2,0.4-0.3,0.6-0.4c0.6-0.6,1.1-1.2,1.7-1.7c0.9-0.8,2-1.4,3.3-1.3
			c0.2,0,0.4,0,0.6,0.1c0.9,0.3,1.3,1.1,0.8,1.9c-0.6,1.1-1.3,2-2.2,2.8c-1.4,1.3-3,2.3-4.7,2.9c-0.5,0.2-0.8,0.5-0.9,1.1
			c-0.8,4.3-1.8,8.6-2.7,12.8c-0.2,0.8-0.3,1.6-0.4,2.4c0,0.5-0.3,0.8-0.8,1c-1.5,0.3-3,0.4-4.5,0.3c-1-0.1-1.2-0.6-1.2-1.5
			c0.2-3.8,1-7.4,1.4-11.1c0.1-1,0.3-2.1,0.4-3.2c-2.8,0-5.4-0.4-8.1-1c-0.1,0.8-0.2,1.5-0.3,2.2c-0.7,4.2-1.4,8.4-2.1,12.7
			c-0.2,0.9-0.2,1.8-0.2,2.7c-0.1,0.8-0.3,1.1-1.1,1.3c-1.2,0.2-2.4,0.3-3.7,0c-1-0.3-1.3-0.5-1.1-1.5c0.2-2.2,0.5-4.3,0.8-6.5
			c0.6-3.6,1.2-7.2,1.8-10.8c0-0.2,0-0.3,0-0.6c-0.8-0.1-1.5,0.1-2.2,0.3c-0.5,0.2-1.1,0.3-1.6,0.2c-0.3-0.1-0.6-0.2-0.6-0.5
			c0-0.2,0.2-0.5,0.3-0.7c0.5-0.3,1.1-0.6,1.6-0.8C3,93.7,3.9,93.5,4.9,93.4z"/>
		<path class="st0" d="M94,118.6c-4.1-0.3-8.2-0.5-12.2-0.8c-4.7-0.3-9.3-0.2-13.9,0.1c-4.1,0.2-8.2,0.3-12.3,0.5
			c-5.2,0.3-10.3,0.5-15.5,0.8c-5.5,0.3-10.9,0.6-16.4,0.9c-4.4,0.3-8.8,0.6-13.3,0.9c-1.8,0.1-3.6,0.2-5.3,0.4
			c-0.9,0.1-1.6-0.2-2.1-0.6c-1.8-1.5-1.6-2.6,1-3.1c1.7-0.4,3.5-0.6,5.2-0.8c6.3-0.6,12.7-1.1,19.1-1.7c6.6-0.6,13.2-1.1,19.9-1.4
			c4.7-0.3,9.3-0.4,14-0.7c3.8-0.2,7.5-0.5,11.3-0.7c3.4-0.2,6.8-0.2,10.3-0.3c2.5,0,5,0.1,7.4,0.1c5.1,0.1,10.2,0.4,15.3,0.9
			c2.1,0.2,4.2,0.5,6.3,1c0.8,0.2,1.3,0.5,1.6,1c0.8,1.2,0.9,2.4,0.6,3.7c-0.2,0.6-0.7,0.9-1.5,0.9c-1.4,0-2.8,0-4.1-0.1
			C104.1,119.4,99.1,119,94,118.6C94,118.6,94,118.6,94,118.6z"/>
	</g>
	<path class="st0" d="M44.9,63.7c0.4-0.7,0.8-1.3,1.2-1.9c0.7-0.9,1.6-1.2,2.7-0.9c0.6,0.1,0.9,0.4,0.8,1.1c0,0.3-0.1,0.6-0.2,0.9
		c-0.5,1.9-1,3.9-1.4,5.8c-0.2,0.7-0.1,1.4-0.1,2.2c0,0.3,0.1,0.5,0.2,0.8c1.5-1,5.5-7.2,6.3-9.8c-0.2,0-0.4-0.1-0.6-0.1
		c-0.7,0-1.4,0-2.2,0c-0.4,0-0.9-0.2-1.3-0.4c-0.3-0.2-0.3-0.4,0-0.7c0.3-0.2,0.6-0.4,0.9-0.4c1.1-0.2,2.3-0.3,3.4-0.4
		c0.5,0,0.7-0.2,0.9-0.6c0.6-1.1,1.3-2.3,2-3.3c0.7-1,1.9-1.1,2.9-0.4c0.3,0.3,0.4,0.6,0.3,0.9c-0.1,0.7-0.3,1.4-0.4,2.1
		c-0.1,0.3-0.2,0.7-0.3,1.1c0.8,0,1.4-0.3,2.1-0.5c0.7-0.2,1.4-0.5,2.2-0.6c0.7-0.1,1.4,0,2.1,0.1c0.2,0,0.5,0.1,0.7,0.3
		c0.6,0.3,0.6,0.8,0.1,1.2c-0.3,0.2-0.6,0.4-1,0.6c-1.8,0.8-3.7,1.2-5.6,1.3c-0.4,0-0.9,0.1-1.4,0.1c-0.3,0.8-0.5,1.6-0.7,2.4
		c-0.3,1.2-0.5,2.3-0.6,3.4c-0.1,0.7,0,1.3,0.1,2c0,0.5,0.3,0.9,0.7,1.1c0.6-0.2,1.1-0.7,1.5-1.1c0.4-0.6,0.8-1.2,1.2-1.8
		c0.7-1,1.3-2,2-3c0.3-0.5,0.8-0.8,1.4-0.8c0.7-0.1,1,0.3,1.1,0.9c0.4,4.3-4.2,8.2-8.4,7.2c-1.3-0.3-2.3-0.9-2.9-2
		c-0.2-0.3-0.4-0.6-0.6-0.9c-0.2,0.3-0.3,0.6-0.5,0.8c-0.6,0.8-1.2,1.5-1.9,2.2c-1.5,1.4-3.2,1.7-5.1,1.3c-0.8-0.2-1.5-0.6-2-1.3
		c-0.2,0.1-0.3,0.3-0.4,0.4c-1.6,1.3-3.3,1.8-5.3,1.2c-1.4-0.4-2.1-1.3-2.4-2.7c-0.4-2.5,1.1-6.5,5.1-7.4
		C42.6,63.3,43.8,63.3,44.9,63.7z M40.6,72.1c0.2-0.1,0.3-0.1,0.3-0.2c0.2-0.2,0.3-0.3,0.5-0.4c1.1-1.1,1.8-2.4,2.4-3.8
		c0.4-0.9,0.3-1.6-0.4-2.3c-0.3-0.3-0.6-0.4-0.9-0.2c-0.3,0.3-0.8,0.5-1,0.9c-1.1,1.3-1.6,2.7-1.4,4.4C40.1,71,40.2,71.6,40.6,72.1z
		"/>
	<g>
		<path class="st0" d="M7.4,53.9c0.1,0.2,0.2,0.3,0.3,0.5c0.9,2.5,2.8,4.3,4.8,5.9c0.3,0.2,0.5,0.3,0.8,0.5c1.5,1.1,3.2,1.7,5,1.9
			c0.4,0.1,0.8,0.2,1.2,0.4c0.4,0.2,0.5,0.5,0.5,0.9c0,0.4-0.2,0.5-0.6,0.7c-0.4,0.1-0.9,0.2-1.3,0.1c-1.5-0.2-2.9-0.6-4.2-1.4
			c-2.5-1.5-4.5-3.5-5.9-6.1c-0.4-0.7-0.6-1.5-0.7-2.3C7.1,54.6,7.1,54.3,7.4,53.9z"/>
		<path class="st0" d="M5.2,58.3c0.2,0.2,0.4,0.3,0.5,0.5c0.3,0.3,0.5,0.6,0.8,0.9c1.9,2.2,4.2,3.9,6.9,4.9c0.4,0.2,0.8,0.3,1.3,0.4
			c1,0.4,2.1,0.5,3.1,0.6c0.4,0,0.9,0.1,1.3,0.1c0.2,0,0.3,0.2,0.4,0.3c0,0.2,0,0.4-0.2,0.5c-0.3,0.1-0.7,0.3-1,0.3
			c-1.4,0.2-2.7,0-4-0.4c-2.8-0.8-5.2-2.2-7.1-4.2c-0.7-0.8-1.3-1.6-1.8-2.5c-0.1-0.3-0.3-0.6-0.3-0.9c0-0.2,0-0.4,0-0.6
			C5.1,58.3,5.1,58.3,5.2,58.3z"/>
		<path class="st0" d="M6.6,65.2c0.2,0.1,0.4,0.1,0.5,0.2c0.7,0.3,1.3,0.7,2,0.9c1.9,0.8,3.9,1.1,5.9,1.2c1.1,0,2.3,0.1,3.4,0.2
			c0.1,0,0.2,0,0.3,0c0.3,0.1,0.4,0.2,0.5,0.4c0,0.3-0.2,0.3-0.4,0.4c-1,0.3-2.1,0.6-3.2,0.4c-1.3-0.2-2.6-0.3-3.9-0.5
			c-1.4-0.3-2.8-0.8-4-1.7C7.3,66.7,7,66.3,6.7,66C6.5,65.7,6.5,65.6,6.6,65.2z"/>
		<path class="st0" d="M8.6,69.2c0.2,0,0.3,0,0.4,0c1.7,0.2,3.3,0.3,4.9,0.5c0.2,0,0.4,0.1,0.5,0.1c0.2,0.1,0.3,0.2,0.3,0.4
			c0,0.2-0.1,0.3-0.3,0.4c-0.7,0.2-1.4,0.4-2.2,0.3c-1.1-0.1-2.1-0.4-3.1-0.8c-0.3-0.1-0.5-0.3-0.6-0.6C8.6,69.4,8.6,69.4,8.6,69.2z
			"/>
	</g>
	<g>
		<path class="st0" d="M89.1,65.2c0.2-0.2,0.3-0.3,0.4-0.4c0.4-0.3,0.8-0.6,1.1-0.8c0.9-0.7,1.8-1.3,2.7-2c2.2-1.9,4.3-3.9,6.1-6.2
			c0.5-0.6,1.1-1.2,1.7-1.8c0.1-0.1,0.3-0.3,0.5-0.3c0.4-0.2,0.8,0.1,0.7,0.6c-0.1,0.3-0.2,0.5-0.3,0.8c-0.6,1.4-1.4,2.6-2.4,3.8
			c-1.7,2-3.6,3.7-5.7,5.3c-1,0.7-2,1.2-3.2,1.5c-0.3,0.1-0.5,0.1-0.8,0.1C89.6,65.6,89.3,65.5,89.1,65.2z"/>
		<path class="st0" d="M91.3,67.3c0.2-0.2,0.3-0.3,0.5-0.3c0.5-0.3,0.9-0.6,1.4-0.8c2.5-1.3,4.6-3,6.6-4.9c1.3-1.2,2.5-2.5,3.8-3.7
			c0.3-0.3,0.5-0.5,0.8-0.7c0.3-0.2,0.6-0.3,1-0.2c0.4,0.1,0.6,0.4,0.4,0.8c-0.1,0.2-0.2,0.4-0.3,0.6c-0.5,0.6-0.9,1.2-1.4,1.8
			c-2.1,2.2-4.4,4.2-6.9,5.8c-1.4,0.9-2.8,1.6-4.5,1.9C92.1,67.6,91.7,67.7,91.3,67.3z"/>
		<path class="st0" d="M87,63c0.5-0.4,0.9-0.8,1.3-1.2c0.4-0.3,0.8-0.7,1.2-1c1.5-1.3,2.8-2.8,3.8-4.4c0.7-1,1.3-2.1,2-3.1
			c0.1-0.1,0.1-0.2,0.2-0.3c0.2-0.2,0.4-0.2,0.6-0.2c0.2,0.1,0.3,0.2,0.3,0.5c0,0.3,0,0.6-0.1,0.9c-0.4,1.8-1.3,3.5-2.4,4.9
			c-0.5,0.7-1.1,1.3-1.7,2c-1.1,1.2-2.6,1.9-4.1,2.3C87.8,63.5,87.4,63.4,87,63z"/>
		<path class="st0" d="M93.8,68.9c0.2-0.1,0.4-0.3,0.6-0.3c0.7-0.3,1.4-0.5,2.1-0.8c0.9-0.3,1.9-0.6,2.8-1.1
			c1.6-0.8,3.1-1.7,4.7-2.6c0.9-0.5,1.7-1,2.6-1.5c0.3-0.2,0.6-0.3,1-0.4c0.2-0.1,0.5-0.1,0.7,0c0.3,0.1,0.3,0.3,0.2,0.5
			c-0.1,0.1-0.1,0.3-0.2,0.4c-0.4,0.4-0.7,0.8-1.1,1.2c-2.7,2.1-5.6,3.7-8.9,4.5c-1.1,0.3-2.3,0.4-3.4,0.5
			C94.4,69.3,94.1,69.3,93.8,68.9z"/>
		<path class="st0" d="M95.2,71c0.2-0.1,0.4-0.2,0.6-0.2c0.9-0.1,1.8-0.2,2.7-0.3c2.1-0.3,4.1-0.7,6.1-1.4c0.6-0.2,1.2-0.4,1.8-0.7
			c0.5-0.2,0.7-0.2,1.1,0.1c0,0.3-0.3,0.6-0.5,0.8c-0.5,0.3-1,0.7-1.6,0.9c-1.7,0.7-3.4,1.1-5.2,1.4c-1.5,0.2-2.9,0.1-4.4-0.1
			C95.6,71.4,95.3,71.4,95.2,71z"/>
		<path class="st0" d="M105.3,72.8c-0.2,0.4-0.4,0.5-0.7,0.7c-1,0.4-2,0.5-3.1,0.4c-0.9-0.1-1.8-0.2-2.6-0.3c-0.3,0-0.5-0.1-0.7-0.2
			c-0.2-0.1-0.3-0.2-0.5-0.3c0.2-0.3,0.5-0.3,0.7-0.3c1.4-0.1,2.9-0.1,4.3-0.2c0.5,0,1-0.1,1.5-0.1C104.6,72.5,105,72.5,105.3,72.8z
			"/>
	</g>
</g>
</svg>
